PathFileType	4	(X/Y/Z)	./resultDataOpenSim/trcMotMarkerGrf/sub09/qtm-15-02.trc
DataRate	CameraRate	NumFrames	NumMarkers	Units	OrigDataRate	OrigDataStartFrame	OrigNumFrames
250.000000	250.000000	9	24	m	250.000000	194	515
Frame#	Time	L.Toe.Tip			R.Toe.Tip			L.Ankle.Lat			R.Ankle.Lat			L.Ankle.Med			R.Ankle.Med			L.Heel			R.Heel			L.Knee.Lat			R.Knee.Lat			L.Knee.Med			R.Knee.Med			L.Thigh.Upper			R.Thigh.Upper			L.ASIS			R.ASIS			V.Sacral			L.Acromium			R.Acromium			C7			L.Elbow			R.Elbow			L.Wrist.Lat			R.Wrist.Lat
		X1	Y1	Z1	X2	Y2	Z2	X3	Y3	Z3	X4	Y4	Z4	X5	Y5	Z5	X6	Y6	Z6	X7	Y7	Z7	X8	Y8	Z8	X9	Y9	Z9	X10	Y10	Z10	X11	Y11	Z11	X12	Y12	Z12	X13	Y13	Z13	X14	Y14	Z14	X15	Y15	Z15	X16	Y16	Z16	X17	Y17	Z17	X18	Y18	Z18	X19	Y19	Z19	X20	Y20	Z20	X21	Y21	Z21	X22	Y22	Z22	X23	Y23	Z23	X24	Y24	Z24

194	0.772	0.14938183	-0.059462732	0.039374237	-0.55898518	0.06840484	0.092756698	0.0089502248	-0.023719134	-0.030792225	-0.60344944	0.21507875	0.1384059	0.013424262	-0.010371649	0.069020729	-0.54549347	0.21418813	0.054304578	-0.067580618	-0.061094122	0.0030534	-0.63696953	0.26174953	0.075631936	0.060956476	0.39229707	-0.072900719	-0.20363542	0.40108249	0.24309387	0.03910963	0.39544701	0.049916272	-0.17816127	0.36940552	0.12098245	-0.077582032	0.78121973	-0.13214332	-0.17241969	0.79834181	0.23345988	-0.015027719	0.86468815	-0.056692885	-0.052740559	0.87677105	0.18124752	-0.20994398	0.92549724	0.027926476	-0.067201428	1.3212299	-0.1371806	-0.12699808	1.3429758	0.19273898	-0.16360182	1.377717	0.017265058	-0.23156404	1.0011614	-0.19856778	-0.26063679	1.010591	0.29715223	-0.13696519	0.75676308	-0.23040724	-0.11000761	0.78580323	0.32370647
195	0.776	0.14942396	-0.059547759	0.039171628	-0.55208113	0.071894161	0.094487196	0.0096660514	-0.024202968	-0.031744695	-0.59186022	0.22079746	0.13891502	0.013801445	-0.010116914	0.068033708	-0.53367491	0.2183849	0.055381468	-0.067515849	-0.060881935	0.0022430175	-0.62382726	0.26864014	0.076760315	0.067220506	0.3914201	-0.073741486	-0.18974485	0.39906584	0.24447348	0.047089089	0.39498542	0.049123964	-0.16485394	0.36821419	0.12154543	-0.075160469	0.78140556	-0.13228952	-0.16630573	0.79602469	0.23387045	-0.0098852322	0.86487766	-0.057683689	-0.047421123	0.87554926	0.18072946	-0.20425917	0.92466641	0.028258408	-0.058923438	1.3201661	-0.13739688	-0.12041139	1.3421037	0.19238238	-0.15587619	1.3770906	0.016522637	-0.22238792	0.99956223	-0.19963243	-0.254965	1.0096405	0.29577541	-0.1288563	0.75497575	-0.23081883	-0.10583306	0.78430444	0.32421328
196	0.78	0.14946101	-0.059657995	0.038929473	-0.54383838	0.075798046	0.096441354	0.010557589	-0.024840244	-0.032847264	-0.57988165	0.22640774	0.1397245	0.014132849	-0.0098744666	0.066857597	-0.52157508	0.2225195	0.056565938	-0.067339195	-0.060783221	0.0010930917	-0.6105008	0.2751325	0.077737864	0.072975989	0.39022963	-0.074771857	-0.17543273	0.39710001	0.24566022	0.054402359	0.39361588	0.048280399	-0.15169803	0.36720636	0.1219491	-0.072544075	0.78139957	-0.13226704	-0.16027429	0.79395985	0.23419956	-0.0045772196	0.86543837	-0.058652578	-0.042169046	0.87448946	0.18023186	-0.19852816	0.92391913	0.028564785	-0.05064243	1.3192947	-0.13749492	-0.11349552	1.3414936	0.19202872	-0.14827987	1.376452	0.015917267	-0.21307123	0.99825019	-0.20059836	-0.24927268	1.0090993	0.2942578	-0.1206202	0.7533638	-0.23110785	-0.10175371	0.78307292	0.32466856
197	0.784	0.14952085	-0.059784861	0.038724721	-0.53429221	0.080081567	0.098624588	0.011546125	-0.025426886	-0.033838412	-0.5674641	0.23194544	0.14076776	0.014468428	-0.0096546275	0.065760163	-0.5092724	0.2268273	0.057770856	-0.067095048	-0.060674761	-8.2314157e-05	-0.5972074	0.28130248	0.078782517	0.078168959	0.38881687	-0.075896665	-0.16091723	0.39512947	0.24642624	0.061071823	0.39170518	0.04743223	-0.13863227	0.36636094	0.12233912	-0.069601681	0.78125641	-0.13226124	-0.15419928	0.79220509	0.23445961	0.00086560086	0.86617171	-0.05955619	-0.036966526	0.87355999	0.17976038	-0.19272755	0.92326164	0.02883314	-0.042369646	1.3185833	-0.13748815	-0.10627119	1.3411327	0.1917098	-0.1407518	1.3758859	0.015460633	-0.20370889	0.99723608	-0.20143	-0.24349944	1.008941	0.29262269	-0.11223276	0.75195553	-0.23131351	-0.09775069	0.78211933	0.32508085
198	0.788	0.14958558	-0.059894502	0.038578799	-0.52359766	0.084692143	0.10097538	0.012452842	-0.025807247	-0.034538965	-0.55456994	0.23747044	0.14176915	0.014796717	-0.0094674062	0.064956078	-0.49677212	0.23146577	0.058879462	-0.066858284	-0.060434591	-0.0010698069	-0.58396884	0.28721623	0.080061203	0.082806176	0.38723173	-0.076973988	-0.14640307	0.39321826	0.24677832	0.067190866	0.38950002	0.046665497	-0.125619	0.36565862	0.12288153	-0.06621418	0.78098847	-0.13236166	-0.14796687	0.79075847	0.2346571	0.006381901	0.86687866	-0.060410044	-0.031828973	0.87274113	0.17931555	-0.18683282	0.92270021	0.029051264	-0.034102665	1.3179964	-0.13737257	-0.098801541	1.3409884	0.19144809	-0.13326477	1.3754328	0.015142223	-0.19438911	0.99649151	-0.20212995	-0.23762073	1.0091058	0.29091097	-0.10368326	0.75077026	-0.23147972	-0.093809598	0.78141913	0.3254615
199	0.792	0.1496485	-0.059956416	0.038458093	-0.51193338	0.089603584	0.10334288	0.013157504	-0.025945779	-0.034899538	-0.54120329	0.2429669	0.14265513	0.015110857	-0.0093316476	0.064532971	-0.48404417	0.2364043	0.059874012	-0.066676643	-0.060053387	-0.0017720181	-0.57069405	0.29292981	0.081596575	0.087019473	0.38551647	-0.077844909	-0.13185712	0.39151806	0.24692619	0.07290439	0.38718323	0.046109442	-0.11263219	0.36506535	0.12357666	-0.062248588	0.78060715	-0.13259497	-0.14150884	0.78956719	0.23479187	0.011893595	0.86741126	-0.061254672	-0.026780787	0.87202651	0.17889221	-0.18080983	0.92224206	0.02920799	-0.025838399	1.3175026	-0.13714276	-0.09117037	1.341021	0.19124984	-0.12585673	1.3750719	0.014941484	-0.18517586	0.99595246	-0.20273505	-0.23170065	1.0095439	0.28919191	-0.094957102	0.74982372	-0.23163195	-0.089915255	0.78092736	0.32581916
200	0.796	0.14971767	-0.059975642	0.038353267	-0.49943072	0.094782178	0.10556916	0.01366359	-0.025933846	-0.034952767	-0.52743709	0.24836177	0.14357963	0.015429164	-0.009273386	0.064462706	-0.47106741	0.24149034	0.060821411	-0.066565448	-0.059624688	-0.0021534176	-0.55731031	0.29848441	0.083269193	0.091014069	0.38373203	-0.078401874	-0.11720139	0.3901708	0.24704046	0.078277967	0.38492304	0.045855083	-0.099565399	0.36459373	0.12418485	-0.057598614	0.78015879	-0.13295037	-0.13481126	0.78854876	0.23485493	0.017327663	0.8677291	-0.062108079	-0.021829029	0.8714235	0.17848645	-0.17460332	0.92189682	0.029293892	-0.017593415	1.3170838	-0.13681433	-0.08345216	1.3411961	0.1911106	-0.11858998	1.3747656	0.01482345	-0.17610716	0.99553879	-0.20329555	-0.22581098	1.0102043	0.28753654	-0.08604215	0.74911773	-0.2317782	-0.086050351	0.7806019	0.32615665
201	0.8	0.14979394	-0.059985589	0.038309977	-0.48616668	0.10013103	0.10758727	0.014028538	-0.025911064	-0.034763366	-0.51340375	0.25358305	0.1446815	0.015762558	-0.0093063922	0.064662239	-0.45784604	0.24658351	0.06177318	-0.066518013	-0.059252879	-0.0021783033	-0.5437878	0.30386806	0.084938343	0.094918058	0.38195293	-0.078609861	-0.10247027	0.38923648	0.24714812	0.083197044	0.38286796	0.045880768	-0.086276993	0.36434181	0.12445125	-0.052260358	0.77970221	-0.13337448	-0.12790845	0.78761666	0.23483198	0.022650525	0.86789098	-0.062946242	-0.016948153	0.87095142	0.1780985	-0.16813996	0.92167667	0.029300052	-0.0093926607	1.3167291	-0.13640893	-0.075705227	1.3414845	0.19103208	-0.11145304	1.3745007	0.01469931	-0.16720003	0.9951846	-0.20385751	-0.21998611	1.0110235	0.28599609	-0.076957172	0.74862403	-0.2319145	-0.082198645	0.78041706	0.32647103
202	0.804	0.14986853	-0.060012459	0.038372794	-0.47222013	0.10549846	0.10942535	0.014290718	-0.025955491	-0.034413129	-0.49921985	0.2585814	0.14596877	0.016102176	-0.0094155269	0.065045034	-0.44440037	0.25160397	0.062741393	-0.066513414	-0.058988651	-0.0018070423	-0.53012959	0.30902772	0.08656446	0.098690283	0.38025064	-0.078484025	-0.087722892	0.38869072	0.24720819	0.087495754	0.38116683	0.046120752	-0.072742402	0.36443429	0.12432204	-0.046349199	0.77925748	-0.13379254	-0.12087201	0.78670851	0.2347133	0.027874643	0.86798771	-0.063724315	-0.012076193	0.87063505	0.17773233	-0.16138119	0.9215915	0.029211586	-0.001246771	1.3164263	-0.13592624	-0.067993573	1.3418555	0.191025	-0.10434199	1.3742881	0.014440352	-0.15845893	0.99485712	-0.20445796	-0.21425443	1.0119512	0.28460669	-0.067755629	0.74829503	-0.23204025	-0.078336617	0.78036247	0.32675488
